<?xml version="1.0" standalone="no"?>
<!DOCTYPE svg PUBLIC "-//W3C//DTD SVG 20010904//EN"
 "http://www.w3.org/TR/2001/REC-SVG-20010904/DTD/svg10.dtd">
<svg version="1.0" xmlns="http://www.w3.org/2000/svg"
 width="512.000000pt" height="512.000000pt" viewBox="0 0 512.000000 512.000000"
 preserveAspectRatio="xMidYMid meet">

<g transform="translate(0.000000,512.000000) scale(0.100000,-0.100000)">
<path d="M638 4533 c-39 -10 -43 -60 -43 -493 0 -457 10 -574 76 -904 204
-1013 792 -1849 1746 -2481 l102 -68 53 28 c29 15 105 60 168 100 1101 698
1662 1601 1751 2820 19 258 -5 854 -37 938 -13 36 -50 31 -202 -28 -526 -206
-1094 -478 -1573 -753 l-157 -89 -73 65 c-412 366 -862 617 -1384 773 -84 25
-403 102 -408 98 -1 -1 -10 -3 -19 -6z m219 -138 c483 -118 885 -306 1273
-594 105 -78 292 -235 297 -250 2 -3 -16 -17 -40 -30 -208 -118 -657 -423
-985 -668 -236 -177 -312 -241 -312 -261 0 -23 40 -53 61 -47 11 4 99 68 197
142 322 246 616 452 945 659 l212 134 95 -100 c97 -102 127 -119 158 -88 25
25 10 55 -73 144 -64 69 -82 94 -72 102 58 48 737 403 1020 533 276 128 725
314 734 306 31 -32 39 -784 10 -1017 -81 -661 -296 -1187 -697 -1702 -93 -119
-415 -438 -555 -549 -227 -180 -584 -416 -609 -402 -60 34 -291 201 -411 297
-183 146 -486 447 -617 611 -283 357 -479 720 -616 1145 -159 493 -211 991
-172 1663 0 11 4 10 157 -28z"/>
</g>
</svg>
