<?xml version="1.0" standalone="no"?>
<!DOCTYPE svg PUBLIC "-//W3C//DTD SVG 20010904//EN"
 "http://www.w3.org/TR/2001/REC-SVG-20010904/DTD/svg10.dtd">
<svg version="1.0" xmlns="http://www.w3.org/2000/svg"
 width="512.000000pt" height="512.000000pt" viewBox="0 0 512.000000 512.000000"
 preserveAspectRatio="xMidYMid meet">

<g transform="translate(0.000000,512.000000) scale(0.100000,-0.100000)">
<path d="M168 5104 c-28 -9 -64 -31 -91 -58 -84 -81 -77 143 -77 -2486 0
-2629 -7 -2405 76 -2486 83 -80 -134 -74 2484 -74 2618 0 2401 -6 2484 74 83
81 76 -143 76 2486 0 2629 7 2405 -76 2486 -83 81 135 74 -2488 73 -2004 0
-2348 -2 -2388 -15z m656 -600 c599 -133 1152 -416 1616 -828 41 -36 78 -66
83 -66 5 0 99 51 210 114 386 217 782 413 1182 583 252 107 472 193 494 193
43 0 51 -20 68 -170 21 -188 24 -758 5 -935 -78 -702 -311 -1284 -717 -1790
-278 -347 -641 -657 -1079 -924 -83 -50 -155 -91 -161 -91 -6 0 -78 45 -159
100 -1130 765 -1721 1807 -1775 3125 -8 186 1 619 14 672 6 25 31 53 47 53 6
0 84 -16 172 -36z"/>
<path d="M696 4356 c-12 -136 -7 -595 9 -761 113 -1181 663 -2092 1696 -2810
67 -47 124 -83 128 -81 399 236 667 441 936 717 523 536 814 1158 912 1949 14
113 18 216 17 470 0 276 -13 522 -28 537 -5 6 -344 -133 -571 -233 -333 -147
-988 -483 -1173 -600 -23 -15 -23 -15 63 -106 84 -91 99 -120 73 -146 -7 -7
-24 -12 -38 -12 -21 0 -46 21 -114 95 -48 52 -93 95 -99 95 -16 0 -260 -152
-487 -303 -247 -165 -427 -293 -660 -472 -102 -77 -191 -144 -198 -149 -34
-20 -81 28 -62 63 34 64 717 557 1115 806 77 48 157 98 178 111 l37 24 -62 57
c-161 145 -396 314 -578 418 -136 77 -139 79 -270 139 -248 115 -499 198 -796
261 -20 4 -22 -1 -28 -69z"/>
</g>
</svg>
